# xmcd CD database file
#
# Track frame offsets:
#	150
#	31790
#	48942
#	75127
#	105536
#	132423
#	169175
#	189609
#	218144
#	241117
#	258923
#	276560
#
# Disc length: 3894 seconds
#
# Revision: 0
# Processed by: cddbd v1.5.1PL0 Copyright (c) Steve Scherf et al.
# Submitted via: CDex 1.51
#
DISCID=9b0f340c
DTITLE=Jean-Luc_Fillon - Flea_Market
DYEAR=1900
DGENRE=Jazz
TTITLE0=Flea Market
TTITLE1=Far and Wide
TTITLE2=Upside Down
TTITLE3=Rouiane
TTITLE4=One to One
TTITLE5=La Peau
TTITLE6=Vice et Versa
TTITLE7=Fatima - Part 1
TTITLE8=Fatima - Part 2
TTITLE9=Jadis et Naguere
TTITLE10=Les Prisons de Nantes
TTITLE11=Agitato
EXTD=
EXTT0=
EXTT1=
EXTT2=
EXTT3=
EXTT4=
EXTT5=
EXTT6=
EXTT7=
EXTT8=
EXTT9=
EXTT10=
EXTT11=
PLAYORDER=
